<?xml version="1.0" encoding="utf-8"?>
<!-- Generator: Adobe Illustrator 16.0.0, SVG Export Plug-In . SVG Version: 6.00 Build 0)  -->
<!DOCTYPE svg PUBLIC "-//W3C//DTD SVG 1.1//EN" "http://www.w3.org/Graphics/SVG/1.1/DTD/svg11.dtd">
<svg version="1.1" xmlns="http://www.w3.org/2000/svg" xmlns:xlink="http://www.w3.org/1999/xlink" x="0px" y="0px" width="960px"
  height="400px" viewBox="0 0 960 400" enable-background="new 0 0 960 400" xml:space="preserve">
<g id="レイヤー_1">
</g>
<g id="レイヤー_2">
 <rect x="59" y="9" width="840" height="2" />
 <path fill="none" d="M-1,10.5" />
<rect x="228" y="114" fill="#E9E5E2" width="24" height="20" id="A01" />
<rect x="254" y="114" fill="#E9E5E2" width="25" height="20" id="A02" />
<rect x="281" y="114" fill="#E9E5E2" width="23" height="20" id="A03" />
<rect x="306" y="114" fill="#E9E5E2" width="25" height="20" id="A04" />
<rect x="333" y="114" fill="#E9E5E2" width="23" height="20" id="A05" />
<rect x="358" y="114" fill="#E9E5E2" width="24" height="20" id="A06" />
<rect x="384" y="114" fill="#E9E5E2" width="25" height="20" id="A07" />
<rect x="411" y="114" fill="#E9E5E2" width="23" height="20" id="A08" />
<rect x="436" y="114" fill="#E9E5E2" width="24" height="20" id="A09" />
<rect x="462" y="114" fill="#E9E5E2" width="24" height="20" id="A10" />
<rect x="488" y="114" fill="#E9E5E2" width="25" height="20" id="A11" />
<rect x="515" y="114" fill="#E9E5E2" width="24" height="20" id="A12" />
<rect x="541" y="114" fill="#E9E5E2" width="24" height="20" id="A13" />
<rect x="567" y="114" fill="#E9E5E2" width="24" height="20" id="A14" />
<rect x="593" y="114" fill="#E9E5E2" width="24" height="20" id="A15" />
<rect x="619" y="114" fill="#E9E5E2" width="24" height="20" id="A16" />
<rect x="645" y="114" fill="#E9E5E2" width="24" height="20" id="A17" />
<rect x="671" y="114" fill="#E9E5E2" width="24" height="20" id="A18" />
<rect x="697" y="114" fill="#E9E5E2" width="23" height="20" id="A19" />
<rect x="722" y="114" fill="#E9E5E2" width="25" height="20" id="A20" />
<rect x="228" y="213" fill="#F9EE30" width="24" height="20" id="B01" />
<rect x="254" y="213" fill="#F9EE30" width="25" height="20" id="B02" />
<rect x="281" y="213" fill="#E9E5E2" width="23" height="20" id="B03" />
<rect x="306" y="213" fill="#E9E5E2" width="25" height="20" id="B04" />
<rect x="333" y="213" fill="#E9E5E2" width="23" height="20" id="B05" />
<rect x="358" y="213" fill="#E9E5E2" width="24" height="20" id="B06" />
<rect x="384" y="213" fill="#E9E5E2" width="25" height="20" id="B07" />
<rect x="411" y="213" fill="#E9E5E2" width="23" height="20" id="B08" />
<rect x="436" y="213" fill="#E9E5E2" width="24" height="20" id="B09" />
<rect x="462" y="213" fill="#E9E5E2" width="24" height="20" id="B10" />
<rect x="488" y="213" fill="#E9E5E2" width="25" height="20" id="B11" />
<rect x="515" y="213" fill="#E9E5E2" width="24" height="20" id="B12" />
<rect x="541" y="213" fill="#E9E5E2" width="24" height="20" id="B13" />
<rect x="567" y="213" fill="#E9E5E2" width="24" height="20" id="B14" />
<rect x="593" y="213" fill="#E9E5E2" width="24" height="20" id="B15" />
<rect x="619" y="213" fill="#E9E5E2" width="24" height="20" id="B16" />
<rect x="645" y="213" fill="#E9E5E2" width="24" height="20" id="B17" />
<rect x="671" y="213" fill="#E9E5E2" width="24" height="20" id="B18" />
<rect x="697" y="213" fill="#F9EE30" width="23" height="20" id="B19" />
<rect x="722" y="213" fill="#F9EE30" width="25" height="20" id="B20" />
<rect x="228" y="178" fill="#E9E5E2" width="24" height="20" id="C01" />
<rect x="254" y="178" fill="#E9E5E2" width="25" height="20" id="C02" />
<rect x="281" y="178" fill="#E9E5E2" width="23" height="20" id="C03" />
<rect x="306" y="178" fill="#E9E5E2" width="25" height="20" id="C04" />
<rect x="333" y="178" fill="#E9E5E2" width="23" height="20" id="C05" />
<rect x="358" y="178" fill="#E9E5E2" width="24" height="20" id="C06" />
<rect x="384" y="178" fill="#E9E5E2" width="25" height="20" id="C07" />
<rect x="411" y="178" fill="#E9E5E2" width="23" height="20" id="C08" />
<rect x="436" y="178" fill="#E9E5E2" width="24" height="20" id="C09" />
<rect x="462" y="178" fill="#E9E5E2" width="24" height="20" id="C10" />
<rect x="488" y="178" fill="#E9E5E2" width="25" height="20" id="C11" />
<rect x="515" y="178" fill="#E9E5E2" width="24" height="20" id="C12" />
<rect x="541" y="178" fill="#E9E5E2" width="24" height="20" id="C13" />
<rect x="567" y="178" fill="#E9E5E2" width="24" height="20" id="C14" />
<rect x="593" y="178" fill="#E9E5E2" width="24" height="20" id="C15" />
<rect x="619" y="178" fill="#E9E5E2" width="24" height="20" id="C16" />
<rect x="645" y="178" fill="#E9E5E2" width="24" height="20" id="C17" />
<rect x="671" y="178" fill="#E9E5E2" width="24" height="20" id="C18" />
<rect x="697" y="178" fill="#E9E5E2" width="23" height="20" id="C19" />
<rect x="722" y="178" fill="#E9E5E2" width="25" height="20" id="C20" />
<rect x="228" y="146" fill="#E9E5E2" width="24" height="20" id="D01" />
<rect x="254" y="146" fill="#E9E5E2" width="25" height="20" id="D02" />
<rect x="281" y="146" fill="#E9E5E2" width="23" height="20" id="D03" />
<rect x="306" y="146" fill="#E9E5E2" width="25" height="20" id="D04" />
<rect x="333" y="146" fill="#E9E5E2" width="23" height="20" id="D05" />
<rect x="358" y="146" fill="#E9E5E2" width="24" height="20" id="D06" />
<rect x="384" y="146" fill="#E9E5E2" width="25" height="20" id="D07" />
<rect x="411" y="146" fill="#E9E5E2" width="23" height="20" id="D08" />
<rect x="436" y="146" fill="#E9E5E2" width="24" height="20" id="D09" />
<rect x="462" y="146" fill="#E9E5E2" width="24" height="20" id="D10" />
<rect x="488" y="146" fill="#E9E5E2" width="25" height="20" id="D11" />
<rect x="515" y="146" fill="#E9E5E2" width="24" height="20" id="D12" />
<rect x="541" y="146" fill="#E9E5E2" width="24" height="20" id="D13" />
<rect x="567" y="146" fill="#E9E5E2" width="24" height="20" id="D14" />
<rect x="593" y="146" fill="#E9E5E2" width="24" height="20" id="D15" />
<rect x="619" y="146" fill="#E9E5E2" width="24" height="20" id="D16" />
<rect x="645" y="146" fill="#E9E5E2" width="24" height="20" id="D17" />
<rect x="671" y="146" fill="#E9E5E2" width="24" height="20" id="D18" />
<rect x="697" y="146" fill="#E9E5E2" width="23" height="20" id="D19" />
<rect x="722" y="146" fill="#E9E5E2" width="25" height="20" id="D20" />
<rect x="228" y="114" fill="#E9E5E2" width="24" height="20" id="E01" />
<rect x="254" y="114" fill="#E9E5E2" width="25" height="20" id="E02" />
<rect x="281" y="114" fill="#E9E5E2" width="23" height="20" id="E03" />
<rect x="306" y="114" fill="#E9E5E2" width="25" height="20" id="E04" />
<rect x="333" y="114" fill="#E9E5E2" width="23" height="20" id="E05" />
<rect x="358" y="114" fill="#E9E5E2" width="24" height="20" id="E06" />
<rect x="384" y="114" fill="#E9E5E2" width="25" height="20" id="E07" />
<rect x="411" y="114" fill="#E9E5E2" width="23" height="20" id="E08" />
<rect x="436" y="114" fill="#E9E5E2" width="24" height="20" id="E09" />
<rect x="462" y="114" fill="#E9E5E2" width="24" height="20" id="E10" />
<rect x="488" y="114" fill="#E9E5E2" width="25" height="20" id="E11" />
<rect x="515" y="114" fill="#E9E5E2" width="24" height="20" id="E12" />
<rect x="541" y="114" fill="#E9E5E2" width="24" height="20" id="E13" />
<rect x="567" y="114" fill="#E9E5E2" width="24" height="20" id="E14" />
<rect x="593" y="114" fill="#E9E5E2" width="24" height="20" id="E15" />
<rect x="619" y="114" fill="#E9E5E2" width="24" height="20" id="E16" />
<rect x="645" y="114" fill="#E9E5E2" width="24" height="20" id="E17" />
<rect x="671" y="114" fill="#E9E5E2" width="24" height="20" id="E18" />
<rect x="697" y="114" fill="#E9E5E2" width="23" height="20" id="E19" />
<rect x="722" y="114" fill="#E9E5E2" width="25" height="20" id="E20" />
<rect x="228" y="82" fill="#E9E5E2" width="24" height="20" id="F01" />
<rect x="254" y="82" fill="#E9E5E2" width="25" height="20" id="F02" />
<rect x="281" y="82" fill="#E9E5E2" width="23" height="20" id="F03" />
<rect x="306" y="82" fill="#E9E5E2" width="25" height="20" id="F04" />
<rect x="333" y="82" fill="#E9E5E2" width="23" height="20" id="F05" />
<rect x="358" y="82" fill="#E9E5E2" width="24" height="20" id="F06" />
<rect x="384" y="82" fill="#E9E5E2" width="25" height="20" id="F07" />
<rect x="411" y="82" fill="#E9E5E2" width="23" height="20" id="F08" />
<rect x="436" y="82" fill="#E9E5E2" width="24" height="20" id="F09" />
<rect x="462" y="82" fill="#E9E5E2" width="24" height="20" id="F10" />
<rect x="488" y="82" fill="#E9E5E2" width="25" height="20" id="F11" />
<rect x="515" y="82" fill="#E9E5E2" width="24" height="20" id="F12" />
<rect x="541" y="82" fill="#E9E5E2" width="24" height="20" id="F13" />
<rect x="567" y="82" fill="#E9E5E2" width="24" height="20" id="F14" />
<rect x="593" y="82" fill="#E9E5E2" width="24" height="20" id="F15" />
<rect x="619" y="82" fill="#E9E5E2" width="24" height="20" id="F16" />
<rect x="645" y="82" fill="#E9E5E2" width="24" height="20" id="F17" />
<rect x="671" y="82" fill="#E9E5E2" width="24" height="20" id="F18" />
<rect x="697" y="82" fill="#E9E5E2" width="23" height="20" id="F19" />
<rect x="722" y="82" fill="#E9E5E2" width="25" height="20" id="F20" />
<rect x="228" y="52" fill="#E9E5E2" width="24" height="20" id="G01" />
<rect x="254" y="52" fill="#E9E5E2" width="25" height="20" id="G02" />
<rect x="281" y="52" fill="#E9E5E2" width="23" height="20" id="G03" />
<rect x="306" y="52" fill="#E9E5E2" width="25" height="20" id="G04" />
<rect x="333" y="52" fill="#E9E5E2" width="23" height="20" id="G05" />
<rect x="358" y="52" fill="#E9E5E2" width="24" height="20" id="G06" />
<rect x="384" y="52" fill="#E9E5E2" width="25" height="20" id="G07" />
<rect x="411" y="52" fill="#E9E5E2" width="23" height="20" id="G08" />
<rect x="436" y="52" fill="#E9E5E2" width="24" height="20" id="G09" />
<rect x="462" y="52" fill="#E9E5E2" width="24" height="20" id="G10" />
<rect x="488" y="52" fill="#E9E5E2" width="25" height="20" id="G11" />
<rect x="515" y="52" fill="#E9E5E2" width="24" height="20" id="G12" />
<rect x="541" y="52" fill="#E9E5E2" width="24" height="20" id="G13" />
<rect x="567" y="52" fill="#E9E5E2" width="24" height="20" id="G14" />
<rect x="593" y="52" fill="#E9E5E2" width="24" height="20" id="G15" />
<rect x="619" y="52" fill="#E9E5E2" width="24" height="20" id="G16" />
<rect x="645" y="52" fill="#E9E5E2" width="24" height="20" id="G17" />
<rect x="671" y="52" fill="#E9E5E2" width="24" height="20" id="G18" />
<rect x="697" y="52" fill="#E9E5E2" width="23" height="20" id="G19" />
<rect x="722" y="52" fill="#E9E5E2" width="25" height="20" id="G20" />
</g>
</svg>
