<?xml version="1.0" encoding="utf-8"?>
<!-- Generator: Adobe Illustrator 16.0.0, SVG Export Plug-In . SVG Version: 6.00 Build 0)  -->
<!DOCTYPE svg PUBLIC "-//W3C//DTD SVG 1.1//EN" "http://www.w3.org/Graphics/SVG/1.1/DTD/svg11.dtd">
<svg version="1.1" xmlns="http://www.w3.org/2000/svg" xmlns:xlink="http://www.w3.org/1999/xlink" x="0px" y="0px" width="960px"
	 height="400px" viewBox="0 0 960 400" enable-background="new 0 0 960 400" xml:space="preserve">
<g id="レイヤー_1">
</g>
<g id="レイヤー_2">
	<rect x="59" y="9" width="840" height="2" />
	<path fill="none" d="M-1,10.5" />
	<rect x="67" y="42" fill="#F9EE30" width="23" height="19" id="A01" />
	<rect x="92" y="52" fill="#F9EE30" width="25" height="20" id="A02" />
	<rect x="154" y="52" fill="#E9E5E2" width="23" height="20" id="A03" />
	<rect x="179" y="52" fill="#E9E5E2" width="25" height="20" id="A04" />
	<rect x="206" y="52" fill="#E9E5E2" width="24" height="20" id="A05" />
	<rect x="232" y="52" fill="#E9E5E2" width="23" height="20" id="A06" />
	<rect x="257" y="52" fill="#E9E5E2" width="24" height="20" id="A07" />
	<rect x="283" y="52" fill="#E9E5E2" width="24" height="20" id="A08" />
	<rect x="309" y="52" fill="#E9E5E2" width="25" height="20" id="A09" />
	<rect x="336" y="52" fill="#E9E5E2" width="23" height="20" id="A10" />
	<rect x="361" y="52" fill="#E9E5E2" width="25" height="20" id="A11" />
	<rect x="388" y="52" fill="#E9E5E2" width="23" height="20" id="A12" />
	<rect x="413" y="52" fill="#E9E5E2" width="24" height="20" id="A13" />
	<rect x="439" y="52" fill="#E9E5E2" width="25" height="20" id="A14" />
	<rect x="466" y="52" fill="#E9E5E2" width="23" height="20" id="A15" />
	<rect x="491" y="52" fill="#E9E5E2" width="24" height="20" id="A16" />
	<rect x="517" y="52" fill="#E9E5E2" width="24" height="20" id="A17" />
	<rect x="543" y="52" fill="#E9E5E2" width="23" height="20" id="A18" />
	<rect x="568" y="52" fill="#E9E5E2" width="25" height="20" id="A19" />
	<rect x="595" y="52" fill="#E9E5E2" width="24" height="20" id="A20" />
	<rect x="621" y="52" fill="#E9E5E2" width="24" height="20" id="A21" />
	<rect x="647" y="52" fill="#E9E5E2" width="24" height="20" id="A22" />
	<rect x="673" y="52" fill="#E9E5E2" width="24" height="20" id="A23" />
	<rect x="699" y="52" fill="#E9E5E2" width="24" height="20" id="A24" />
	<rect x="725" y="52" fill="#E9E5E2" width="24" height="20" id="A25" />
	<rect x="751" y="52" fill="#E9E5E2" width="24" height="20" id="A26" />
	<rect x="777" y="52" fill="#E9E5E2" width="23" height="20" id="A27" />
	<rect x="837" y="52" fill="#F9EE30" width="24" height="20" id="A28" />
	<rect x="863" y="43" fill="#F9EE30" width="23" height="19" id="A29" />
	<rect x="15" y="63" fill="#E9E5E2" width="24" height="18" id="B01" />
	<rect x="41" y="73" fill="#E9E5E2" width="23" height="18" id="B02" />
	<rect x="66" y="82" fill="#E9E5E2" width="24" height="20" id="B03" />
	<rect x="92" y="82" fill="#E9E5E2" width="25" height="20" id="B04" />
	<rect x="154" y="82" fill="#E9E5E2" width="23" height="20" id="B05" />
	<rect x="179" y="82" fill="#E9E5E2" width="25" height="20" id="B06" />
	<rect x="206" y="82" fill="#E9E5E2" width="24" height="20" id="B07" />
	<rect x="232" y="82" fill="#E9E5E2" width="23" height="20" id="B08" />
	<rect x="257" y="82" fill="#E9E5E2" width="24" height="20" id="B09" />
	<rect x="283" y="82" fill="#E9E5E2" width="24" height="20" id="B10" />
	<rect x="309" y="82" fill="#E9E5E2" width="25" height="20" id="B11" />
	<rect x="336" y="82" fill="#E9E5E2" width="23" height="20" id="B12" />
	<rect x="361" y="82" fill="#E9E5E2" width="25" height="20" id="B13" />
	<rect x="388" y="82" fill="#E9E5E2" width="23" height="20" id="B14" />
	<rect x="413" y="82" fill="#E9E5E2" width="24" height="20" id="B15" />
	<rect x="439" y="82" fill="#E9E5E2" width="25" height="20" id="B16" />
	<rect x="466" y="82" fill="#E9E5E2" width="23" height="20" id="B17" />
	<rect x="491" y="82" fill="#E9E5E2" width="24" height="20" id="B18" />
	<rect x="517" y="82" fill="#E9E5E2" width="24" height="20" id="B19" />
	<rect x="543" y="82" fill="#E9E5E2" width="23" height="20" id="B20" />
	<rect x="568" y="82" fill="#E9E5E2" width="25" height="20" id="B21" />
	<rect x="595" y="82" fill="#E9E5E2" width="24" height="20" id="B22" />
	<rect x="621" y="82" fill="#E9E5E2" width="24" height="20" id="B23" />
	<rect x="647" y="82" fill="#E9E5E2" width="24" height="20" id="B24" />
	<rect x="673" y="82" fill="#E9E5E2" width="24" height="20" id="B25" />
	<rect x="699" y="82" fill="#E9E5E2" width="24" height="20" id="B26" />
	<rect x="725" y="82" fill="#E9E5E2" width="24" height="20" id="B27" />
	<rect x="751" y="82" fill="#E9E5E2" width="24" height="20" id="B28" />
	<rect x="777" y="82" fill="#E9E5E2" width="23" height="20" id="B29" />
	<rect x="837" y="82" fill="#E9E5E2" width="24" height="20" id="B30" />
	<rect x="863" y="82" fill="#E9E5E2" width="24" height="20" id="B31" />
	<rect x="889" y="73" fill="#E9E5E2" width="24" height="18" id="B32" />
	<rect x="915" y="63" fill="#E9E5E2" width="22" height="18" id="B33" />
	<rect x="15" y="95" fill="#E9E5E2" width="24" height="18" id="C01" />
	<rect x="41" y="105" fill="#E9E5E2" width="23" height="18" id="C02" />
	<rect x="66" y="114" fill="#E9E5E2" width="24" height="20" id="C03" />
	<rect x="92" y="114" fill="#E9E5E2" width="25" height="20" id="C04" />
	<rect x="154" y="114" fill="#E9E5E2" width="23" height="20" id="C05" />
	<rect x="179" y="114" fill="#E9E5E2" width="25" height="20" id="C06" />
	<rect x="206" y="114" fill="#E9E5E2" width="24" height="20" id="C07" />
	<rect x="232" y="114" fill="#E9E5E2" width="23" height="20" id="C08" />
	<rect x="257" y="114" fill="#E9E5E2" width="24" height="20" id="C09" />
	<rect x="283" y="114" fill="#E9E5E2" width="24" height="20" id="C10" />
	<rect x="309" y="114" fill="#E9E5E2" width="25" height="20" id="C11" />
	<rect x="336" y="114" fill="#E9E5E2" width="23" height="20" id="C12" />
	<rect x="361" y="114" fill="#E9E5E2" width="25" height="20" id="C13" />
	<rect x="388" y="114" fill="#E9E5E2" width="23" height="20" id="C14" />
	<rect x="413" y="114" fill="#E9E5E2" width="24" height="20" id="C15" />
	<rect x="439" y="114" fill="#E9E5E2" width="25" height="20" id="C16" />
	<rect x="466" y="114" fill="#E9E5E2" width="23" height="20" id="C17" />
	<rect x="491" y="114" fill="#E9E5E2" width="24" height="20" id="C18" />
	<rect x="517" y="114" fill="#E9E5E2" width="24" height="20" id="C19" />
	<rect x="543" y="114" fill="#E9E5E2" width="23" height="20" id="C20" />
	<rect x="568" y="114" fill="#E9E5E2" width="25" height="20" id="C21" />
	<rect x="595" y="114" fill="#E9E5E2" width="24" height="20" id="C22" />
	<rect x="621" y="114" fill="#E9E5E2" width="24" height="20" id="C23" />
	<rect x="647" y="114" fill="#E9E5E2" width="24" height="20" id="C24" />
	<rect x="673" y="114" fill="#E9E5E2" width="24" height="20" id="C25" />
	<rect x="699" y="114" fill="#E9E5E2" width="24" height="20" id="C26" />
	<rect x="725" y="114" fill="#E9E5E2" width="24" height="20" id="C27" />
	<rect x="751" y="114" fill="#E9E5E2" width="24" height="20" id="C28" />
	<rect x="777" y="114" fill="#E9E5E2" width="23" height="20" id="C29" />
	<rect x="837" y="114" fill="#E9E5E2" width="24" height="20" id="C30" />
	<rect x="863" y="114" fill="#E9E5E2" width="24" height="20" id="C31" />
	<rect x="889" y="105" fill="#E9E5E2" width="24" height="18" id="C32" />
	<rect x="915" y="97" fill="#E9E5E2" width="22" height="18" id="C33" />
	<rect x="15" y="127" fill="#E9E5E2" width="24" height="18" id="D01" />
	<rect x="41" y="137" fill="#E9E5E2" width="23" height="18" id="D02" />
	<rect x="66" y="146" fill="#E9E5E2" width="24" height="20" id="D03" />
	<rect x="92" y="146" fill="#E9E5E2" width="25" height="20" id="D04" />
	<rect x="154" y="146" fill="#E9E5E2" width="23" height="20" id="D05" />
	<rect x="179" y="146" fill="#E9E5E2" width="25" height="20" id="D06" />
	<rect x="206" y="146" fill="#E9E5E2" width="24" height="20" id="D07" />
	<rect x="232" y="146" fill="#E9E5E2" width="23" height="20" id="D08" />
	<rect x="257" y="146" fill="#E9E5E2" width="24" height="20" id="D09" />
	<rect x="283" y="146" fill="#E9E5E2" width="24" height="20" id="D10" />
	<rect x="309" y="146" fill="#E9E5E2" width="25" height="20" id="D11" />
	<rect x="336" y="146" fill="#E9E5E2" width="23" height="20" id="D12" />
	<rect x="361" y="146" fill="#E9E5E2" width="25" height="20" id="D13" />
	<rect x="388" y="146" fill="#E9E5E2" width="23" height="20" id="D14" />
	<rect x="413" y="146" fill="#E9E5E2" width="24" height="20" id="D15" />
	<rect x="439" y="146" fill="#E9E5E2" width="25" height="20" id="D16" />
	<rect x="466" y="146" fill="#E9E5E2" width="23" height="20" id="D17" />
	<rect x="491" y="146" fill="#E9E5E2" width="24" height="20" id="D18" />
	<rect x="517" y="146" fill="#E9E5E2" width="24" height="20" id="D19" />
	<rect x="543" y="146" fill="#E9E5E2" width="23" height="20" id="D20" />
	<rect x="568" y="146" fill="#E9E5E2" width="25" height="20" id="D21" />
	<rect x="595" y="146" fill="#E9E5E2" width="24" height="20" id="D22" />
	<rect x="621" y="146" fill="#E9E5E2" width="24" height="20" id="D23" />
	<rect x="647" y="146" fill="#E9E5E2" width="24" height="20" id="D24" />
	<rect x="673" y="146" fill="#E9E5E2" width="24" height="20" id="D25" />
	<rect x="699" y="146" fill="#E9E5E2" width="24" height="20" id="D26" />
	<rect x="725" y="146" fill="#E9E5E2" width="24" height="20" id="D27" />
	<rect x="751" y="146" fill="#E9E5E2" width="24" height="20" id="D28" />
	<rect x="777" y="146" fill="#E9E5E2" width="23" height="20" id="D29" />
	<rect x="837" y="146" fill="#E9E5E2" width="24" height="20" id="D30" />
	<rect x="863" y="146" fill="#E9E5E2" width="24" height="20" id="D31" />
	<rect x="889" y="137" fill="#E9E5E2" width="24" height="18" id="D32" />
	<rect x="915" y="132" fill="#E9E5E2" width="22" height="18" id="D33" />
	<rect x="15" y="159" fill="#E9E5E2" width="24" height="18" id="E01" />
	<rect x="41" y="169" fill="#E9E5E2" width="23" height="18" id="E02" />
	<rect x="66" y="178" fill="#E9E5E2" width="24" height="20" id="E03" />
	<rect x="92" y="178" fill="#E9E5E2" width="25" height="20" id="E04" />
	<rect x="154" y="178" fill="#E9E5E2" width="23" height="20" id="E05" />
	<rect x="179" y="178" fill="#E9E5E2" width="25" height="20" id="E06" />
	<rect x="206" y="178" fill="#E9E5E2" width="24" height="20" id="E07" />
	<rect x="232" y="178" fill="#E9E5E2" width="23" height="20" id="E08" />
	<rect x="257" y="178" fill="#E9E5E2" width="24" height="20" id="E09" />
	<rect x="283" y="178" fill="#E9E5E2" width="24" height="20" id="E10" />
	<rect x="309" y="178" fill="#E9E5E2" width="25" height="20" id="E11" />
	<rect x="336" y="178" fill="#E9E5E2" width="23" height="20" id="E12" />
	<rect x="361" y="178" fill="#E9E5E2" width="25" height="20" id="E13" />
	<rect x="388" y="178" fill="#E9E5E2" width="23" height="20" id="E14" />
	<rect x="413" y="178" fill="#E9E5E2" width="24" height="20" id="E15" />
	<rect x="439" y="178" fill="#E9E5E2" width="25" height="20" id="E16" />
	<rect x="466" y="178" fill="#E9E5E2" width="23" height="20" id="E17" />
	<rect x="491" y="178" fill="#E9E5E2" width="24" height="20" id="E18" />
	<rect x="517" y="178" fill="#E9E5E2" width="24" height="20" id="E19" />
	<rect x="543" y="178" fill="#E9E5E2" width="23" height="20" id="E20" />
	<rect x="568" y="178" fill="#E9E5E2" width="25" height="20" id="E21" />
	<rect x="595" y="178" fill="#E9E5E2" width="24" height="20" id="E22" />
	<rect x="621" y="178" fill="#E9E5E2" width="24" height="20" id="E23" />
	<rect x="647" y="178" fill="#E9E5E2" width="24" height="20" id="E24" />
	<rect x="673" y="178" fill="#E9E5E2" width="24" height="20" id="E25" />
	<rect x="699" y="178" fill="#E9E5E2" width="24" height="20" id="E26" />
	<rect x="725" y="178" fill="#E9E5E2" width="24" height="20" id="E27" />
	<rect x="751" y="178" fill="#E9E5E2" width="24" height="20" id="E28" />
	<rect x="777" y="178" fill="#E9E5E2" width="23" height="20" id="E29" />
	<rect x="837" y="178" fill="#E9E5E2" width="24" height="20" id="E30" />
	<rect x="863" y="178" fill="#E9E5E2" width="24" height="20" id="E31" />
	<rect x="889" y="169" fill="#E9E5E2" width="24" height="18" id="E32" />
	<rect x="915" y="164" fill="#E9E5E2" width="22" height="18" id="E33" />
	<rect x="66" y="213" fill="#F9EE30" width="24" height="20" id="F01" />
	<rect x="92" y="213" fill="#F9EE30" width="25" height="20" id="F02" />
	<rect x="154" y="213" fill="#E9E5E2" width="23" height="20" id="F03" />
	<rect x="179" y="213" fill="#E9E5E2" width="25" height="20" id="F04" />
	<rect x="206" y="213" fill="#E9E5E2" width="24" height="20" id="F05" />
	<rect x="232" y="213" fill="#E9E5E2" width="23" height="20" id="F06" />
	<rect x="257" y="213" fill="#E9E5E2" width="24" height="20" id="F07" />
	<rect x="283" y="213" fill="#E9E5E2" width="24" height="20" id="F08" />
	<rect x="309" y="213" fill="#E9E5E2" width="25" height="20" id="F09" />
	<rect x="336" y="213" fill="#E9E5E2" width="23" height="20" id="F10" />
	<rect x="361" y="213" fill="#E9E5E2" width="25" height="20" id="F11" />
	<rect x="388" y="213" fill="#E9E5E2" width="23" height="20" id="F12" />
	<rect x="413" y="213" fill="#E9E5E2" width="24" height="20" id="F13" />
	<rect x="439" y="213" fill="#E9E5E2" width="25" height="20" id="F14" />
	<rect x="466" y="213" fill="#E9E5E2" width="23" height="20" id="F15" />
	<rect x="491" y="213" fill="#E9E5E2" width="24" height="20" id="F16" />
	<rect x="517" y="213" fill="#E9E5E2" width="24" height="20" id="F17" />
	<rect x="543" y="213" fill="#E9E5E2" width="23" height="20" id="F18" />
	<rect x="568" y="213" fill="#E9E5E2" width="25" height="20" id="F19" />
	<rect x="595" y="213" fill="#E9E5E2" width="24" height="20" id="F20" />
	<rect x="621" y="213" fill="#E9E5E2" width="24" height="20" id="F21" />
	<rect x="647" y="213" fill="#E9E5E2" width="24" height="20" id="F22" />
	<rect x="673" y="213" fill="#E9E5E2" width="24" height="20" id="F23" />
	<rect x="699" y="213" fill="#E9E5E2" width="24" height="20" id="F24" />
	<rect x="725" y="213" fill="#E9E5E2" width="24" height="20" id="F25" />
	<rect x="751" y="213" fill="#E9E5E2" width="24" height="20" id="F26" />
	<rect x="777" y="213" fill="#E9E5E2" width="23" height="20" id="F27" />
	<rect x="837" y="213" fill="#F9EE30" width="24" height="20" id="F28" />
	<rect x="863" y="213" fill="#F9EE30" width="24" height="20" id="F29" />
	<rect x="346" y="247" fill="#FFBDBD" width="48" height="20" id="G01" />
	<rect x="398" y="247" fill="#FFBDBD" width="47" height="20" id="G02" />
	<rect x="449" y="247" fill="#FFBDBD" width="48" height="20" id="G03" />
	<rect x="501" y="247" fill="#FFBDBD" width="48" height="20" id="G04" />
	<rect x="553" y="247" fill="#FFBDBD" width="48" height="20" id="G05" />

</g>
</svg>
