<?xml version="1.0" encoding="utf-8"?>
<!-- Generator: Adobe Illustrator 16.0.0, SVG Export Plug-In . SVG Version: 6.00 Build 0)  -->
<!DOCTYPE svg PUBLIC "-//W3C//DTD SVG 1.1//EN" "http://www.w3.org/Graphics/SVG/1.1/DTD/svg11.dtd">
<svg version="1.1" xmlns="http://www.w3.org/2000/svg" xmlns:xlink="http://www.w3.org/1999/xlink" x="0px" y="0px" width="960px"
	 height="400px" viewBox="0 0 960 400" enable-background="new 0 0 960 400" xml:space="preserve">
<g id="レイヤー_1">
</g>
<g id="レイヤー_2">
	<rect x="61" y="9" width="840" height="2"/>
	<path fill="none" d="M1,10.5"/>
<rect x="33" y="20" fill="#E9E5E2" width="23" height="18" id="A01"/>
<rect x="58" y="30" fill="#E9E5E2" width="24" height="18" id="A02"/>
<rect x="84" y="42" fill="#E9E5E2" width="23" height="19" id="A03"/>
<rect x="109" y="52" fill="#E9E5E2" width="25" height="20" id="A04"/>
<rect x="155" y="52" fill="#E9E5E2" width="23" height="20" id="A05"/>
<rect x="180" y="52" fill="#E9E5E2" width="25" height="20" id="A06"/>
<rect x="207" y="52" fill="#E9E5E2" width="24" height="20" id="A07"/>
<rect x="233" y="52" fill="#E9E5E2" width="23" height="20" id="A08"/>
<rect x="258" y="52" fill="#E9E5E2" width="24" height="20" id="A09"/>
<rect x="284" y="52" fill="#E9E5E2" width="24" height="20" id="A10"/>
<rect x="310" y="52" fill="#E9E5E2" width="25" height="20" id="A11"/>
<rect x="337" y="52" fill="#E9E5E2" width="23" height="20" id="A12"/>
<rect x="362" y="52" fill="#E9E5E2" width="25" height="20" id="A13"/>
<rect x="389" y="52" fill="#E9E5E2" width="23" height="20" id="A14"/>
<rect x="414" y="52" fill="#E9E5E2" width="24" height="20" id="A15"/>
<rect x="440" y="52" fill="#E9E5E2" width="25" height="20" id="A16"/>
<rect x="467" y="52" fill="#E9E5E2" width="23" height="20" id="A17"/>
<rect x="492" y="52" fill="#E9E5E2" width="24" height="20" id="A18"/>
<rect x="518" y="52" fill="#E9E5E2" width="24" height="20" id="A19"/>
<rect x="544" y="52" fill="#E9E5E2" width="23" height="20" id="A20"/>
<rect x="569" y="52" fill="#E9E5E2" width="25" height="20" id="A21"/>
<rect x="596" y="52" fill="#E9E5E2" width="24" height="20" id="A22"/>
<rect x="622" y="52" fill="#E9E5E2" width="24" height="20" id="A23"/>
<rect x="648" y="52" fill="#E9E5E2" width="24" height="20" id="A24"/>
<rect x="674" y="52" fill="#E9E5E2" width="24" height="20" id="A25"/>
<rect x="700" y="52" fill="#E9E5E2" width="24" height="20" id="A26"/>
<rect x="726" y="52" fill="#E9E5E2" width="24" height="20" id="A27"/>
<rect x="752" y="52" fill="#E9E5E2" width="24" height="20" id="A28"/>
<rect x="778" y="52" fill="#E9E5E2" width="23" height="20" id="A29"/>
<rect x="822" y="52" fill="#E9E5E2" width="24" height="20" id="A30"/>
<rect x="848" y="43" fill="#E9E5E2" width="23" height="19" id="A31"/>
<rect x="873" y="30" fill="#E9E5E2" width="24" height="18" id="A32"/>
<rect x="899" y="20" fill="#E9E5E2" width="22" height="18" id="A33"/>
<rect x="32" y="63" fill="#E9E5E2" width="24" height="18" id="B01"/>
<rect x="58" y="73" fill="#E9E5E2" width="23" height="18" id="B02"/>
<rect x="83" y="82" fill="#E9E5E2" width="24" height="20" id="B03"/>
<rect x="109" y="82" fill="#E9E5E2" width="25" height="20" id="B04"/>
<rect x="155" y="82" fill="#E9E5E2" width="23" height="20" id="B05"/>
<rect x="180" y="82" fill="#E9E5E2" width="25" height="20" id="B06"/>
<rect x="207" y="82" fill="#E9E5E2" width="24" height="20" id="B07"/>
<rect x="233" y="82" fill="#E9E5E2" width="23" height="20" id="B08"/>
<rect x="258" y="82" fill="#E9E5E2" width="24" height="20" id="B09"/>
<rect x="284" y="82" fill="#E9E5E2" width="24" height="20" id="B10"/>
<rect x="310" y="82" fill="#E9E5E2" width="25" height="20" id="B11"/>
<rect x="337" y="82" fill="#E9E5E2" width="23" height="20" id="B12"/>
<rect x="362" y="82" fill="#E9E5E2" width="25" height="20" id="B13"/>
<rect x="389" y="82" fill="#E9E5E2" width="23" height="20" id="B14"/>
<rect x="414" y="82" fill="#E9E5E2" width="24" height="20" id="B15"/>
<rect x="440" y="82" fill="#E9E5E2" width="25" height="20" id="B16"/>
<rect x="467" y="82" fill="#E9E5E2" width="23" height="20" id="B17"/>
<rect x="492" y="82" fill="#E9E5E2" width="24" height="20" id="B18"/>
<rect x="518" y="82" fill="#E9E5E2" width="24" height="20" id="B19"/>
<rect x="544" y="82" fill="#E9E5E2" width="23" height="20" id="B20"/>
<rect x="569" y="82" fill="#E9E5E2" width="25" height="20" id="B21"/>
<rect x="596" y="82" fill="#E9E5E2" width="24" height="20" id="B22"/>
<rect x="622" y="82" fill="#E9E5E2" width="24" height="20" id="B23"/>
<rect x="648" y="82" fill="#E9E5E2" width="24" height="20" id="B24"/>
<rect x="674" y="82" fill="#E9E5E2" width="24" height="20" id="B25"/>
<rect x="700" y="82" fill="#E9E5E2" width="24" height="20" id="B26"/>
<rect x="726" y="82" fill="#E9E5E2" width="24" height="20" id="B27"/>
<rect x="752" y="82" fill="#E9E5E2" width="24" height="20" id="B28"/>
<rect x="778" y="82" fill="#E9E5E2" width="23" height="20" id="B29"/>
<rect x="822" y="82" fill="#E9E5E2" width="24" height="20" id="B30"/>
<rect x="848" y="82" fill="#E9E5E2" width="24" height="20" id="B31"/>
<rect x="874" y="73" fill="#E9E5E2" width="24" height="18" id="B32"/>
<rect x="900" y="63" fill="#E9E5E2" width="22" height="18" id="B33"/>
<rect x="32" y="95" fill="#E9E5E2" width="24" height="18" id="C01"/>
<rect x="58" y="105" fill="#E9E5E2" width="23" height="18" id="C02"/>
<rect x="83" y="114" fill="#E9E5E2" width="24" height="20" id="C03"/>
<rect x="109" y="114" fill="#E9E5E2" width="25" height="20" id="C04"/>
<rect x="155" y="114" fill="#E9E5E2" width="23" height="20" id="C05"/>
<rect x="180" y="114" fill="#E9E5E2" width="25" height="20" id="C06"/>
<rect x="207" y="114" fill="#E9E5E2" width="24" height="20" id="C07"/>
<rect x="233" y="114" fill="#E9E5E2" width="23" height="20" id="C08"/>
<rect x="258" y="114" fill="#E9E5E2" width="24" height="20" id="C09"/>
<rect x="284" y="114" fill="#E9E5E2" width="24" height="20" id="C10"/>
<rect x="310" y="114" fill="#E9E5E2" width="25" height="20" id="C11"/>
<rect x="337" y="114" fill="#E9E5E2" width="23" height="20" id="C12"/>
<rect x="362" y="114" fill="#E9E5E2" width="25" height="20" id="C13"/>
<rect x="389" y="114" fill="#E9E5E2" width="23" height="20" id="C14"/>
<rect x="414" y="114" fill="#E9E5E2" width="24" height="20" id="C15"/>
<rect x="440" y="114" fill="#E9E5E2" width="25" height="20" id="C16"/>
<rect x="467" y="114" fill="#E9E5E2" width="23" height="20" id="C17"/>
<rect x="492" y="114" fill="#E9E5E2" width="24" height="20" id="C18"/>
<rect x="518" y="114" fill="#E9E5E2" width="24" height="20" id="C19"/>
<rect x="544" y="114" fill="#E9E5E2" width="23" height="20" id="C20"/>
<rect x="569" y="114" fill="#E9E5E2" width="25" height="20" id="C21"/>
<rect x="596" y="114" fill="#E9E5E2" width="24" height="20" id="C22"/>
<rect x="622" y="114" fill="#E9E5E2" width="24" height="20" id="C23"/>
<rect x="648" y="114" fill="#E9E5E2" width="24" height="20" id="C24"/>
<rect x="674" y="114" fill="#E9E5E2" width="24" height="20" id="C25"/>
<rect x="700" y="114" fill="#E9E5E2" width="24" height="20" id="C26"/>
<rect x="726" y="114" fill="#E9E5E2" width="24" height="20" id="C27"/>
<rect x="752" y="114" fill="#E9E5E2" width="24" height="20" id="C28"/>
<rect x="778" y="114" fill="#E9E5E2" width="23" height="20" id="C29"/>
<rect x="822" y="114" fill="#E9E5E2" width="24" height="20" id="C30"/>
<rect x="848" y="114" fill="#E9E5E2" width="24" height="20" id="C31"/>
<rect x="874" y="105" fill="#E9E5E2" width="24" height="18" id="C32"/>
<rect x="900" y="97" fill="#E9E5E2" width="22" height="18" id="C33"/>
<rect x="32" y="127" fill="#E9E5E2" width="24" height="18" id="D01"/>
<rect x="58" y="137" fill="#E9E5E2" width="23" height="18" id="D02"/>
<rect x="83" y="146" fill="#E9E5E2" width="24" height="20" id="D03"/>
<rect x="109" y="146" fill="#E9E5E2" width="25" height="20" id="D04"/>
<rect x="155" y="146" fill="#E9E5E2" width="23" height="20" id="D05"/>
<rect x="180" y="146" fill="#E9E5E2" width="25" height="20" id="D06"/>
<rect x="207" y="146" fill="#E9E5E2" width="24" height="20" id="D07"/>
<rect x="233" y="146" fill="#E9E5E2" width="23" height="20" id="D08"/>
<rect x="258" y="146" fill="#E9E5E2" width="24" height="20" id="D09"/>
<rect x="284" y="146" fill="#E9E5E2" width="24" height="20" id="D10"/>
<rect x="310" y="146" fill="#E9E5E2" width="25" height="20" id="D11"/>
<rect x="337" y="146" fill="#E9E5E2" width="23" height="20" id="D12"/>
<rect x="362" y="146" fill="#E9E5E2" width="25" height="20" id="D13"/>
<rect x="389" y="146" fill="#E9E5E2" width="23" height="20" id="D14"/>
<rect x="414" y="146" fill="#E9E5E2" width="24" height="20" id="D15"/>
<rect x="440" y="146" fill="#E9E5E2" width="25" height="20" id="D16"/>
<rect x="467" y="146" fill="#E9E5E2" width="23" height="20" id="D17"/>
<rect x="492" y="146" fill="#E9E5E2" width="24" height="20" id="D18"/>
<rect x="518" y="146" fill="#E9E5E2" width="24" height="20" id="D19"/>
<rect x="544" y="146" fill="#E9E5E2" width="23" height="20" id="D20"/>
<rect x="569" y="146" fill="#E9E5E2" width="25" height="20" id="D21"/>
<rect x="596" y="146" fill="#E9E5E2" width="24" height="20" id="D22"/>
<rect x="622" y="146" fill="#E9E5E2" width="24" height="20" id="D23"/>
<rect x="648" y="146" fill="#E9E5E2" width="24" height="20" id="D24"/>
<rect x="674" y="146" fill="#E9E5E2" width="24" height="20" id="D25"/>
<rect x="700" y="146" fill="#E9E5E2" width="24" height="20" id="D26"/>
<rect x="726" y="146" fill="#E9E5E2" width="24" height="20" id="D27"/>
<rect x="752" y="146" fill="#E9E5E2" width="24" height="20" id="D28"/>
<rect x="778" y="146" fill="#E9E5E2" width="23" height="20" id="D29"/>
<rect x="822" y="146" fill="#E9E5E2" width="24" height="20" id="D30"/>
<rect x="848" y="146" fill="#E9E5E2" width="24" height="20" id="D31"/>
<rect x="874" y="137" fill="#E9E5E2" width="24" height="18" id="D32"/>
<rect x="900" y="132" fill="#E9E5E2" width="22" height="18" id="D33"/>
<rect x="32" y="159" fill="#E9E5E2" width="24" height="18" id="E01"/>
<rect x="58" y="169" fill="#E9E5E2" width="23" height="18" id="E02"/>
<rect x="83" y="178" fill="#E9E5E2" width="24" height="20" id="E03"/>
<rect x="109" y="178" fill="#E9E5E2" width="25" height="20" id="E04"/>
<rect x="155" y="178" fill="#E9E5E2" width="23" height="20" id="E05"/>
<rect x="180" y="178" fill="#E9E5E2" width="25" height="20" id="E06"/>
<rect x="207" y="178" fill="#E9E5E2" width="24" height="20" id="E07"/>
<rect x="233" y="178" fill="#E9E5E2" width="23" height="20" id="E08"/>
<rect x="258" y="178" fill="#E9E5E2" width="24" height="20" id="E09"/>
<rect x="284" y="178" fill="#E9E5E2" width="24" height="20" id="E10"/>
<rect x="310" y="178" fill="#E9E5E2" width="25" height="20" id="E11"/>
<rect x="337" y="178" fill="#E9E5E2" width="23" height="20" id="E12"/>
<rect x="362" y="178" fill="#E9E5E2" width="25" height="20" id="E13"/>
<rect x="389" y="178" fill="#E9E5E2" width="23" height="20" id="E14"/>
<rect x="414" y="178" fill="#E9E5E2" width="24" height="20" id="E15"/>
<rect x="440" y="178" fill="#E9E5E2" width="25" height="20" id="E16"/>
<rect x="467" y="178" fill="#E9E5E2" width="23" height="20" id="E17"/>
<rect x="492" y="178" fill="#E9E5E2" width="24" height="20" id="E18"/>
<rect x="518" y="178" fill="#E9E5E2" width="24" height="20" id="E19"/>
<rect x="544" y="178" fill="#E9E5E2" width="23" height="20" id="E20"/>
<rect x="569" y="178" fill="#E9E5E2" width="25" height="20" id="E21"/>
<rect x="596" y="178" fill="#E9E5E2" width="24" height="20" id="E22"/>
<rect x="622" y="178" fill="#E9E5E2" width="24" height="20" id="E23"/>
<rect x="648" y="178" fill="#E9E5E2" width="24" height="20" id="E24"/>
<rect x="674" y="178" fill="#E9E5E2" width="24" height="20" id="E25"/>
<rect x="700" y="178" fill="#E9E5E2" width="24" height="20" id="E26"/>
<rect x="726" y="178" fill="#E9E5E2" width="24" height="20" id="E27"/>
<rect x="752" y="178" fill="#E9E5E2" width="24" height="20" id="E28"/>
<rect x="778" y="178" fill="#E9E5E2" width="23" height="20" id="E29"/>
<rect x="822" y="178" fill="#E9E5E2" width="24" height="20" id="E30"/>
<rect x="848" y="178" fill="#E9E5E2" width="24" height="20" id="E31"/>
<rect x="874" y="169" fill="#E9E5E2" width="24" height="18" id="E32"/>
<rect x="900" y="164" fill="#E9E5E2" width="22" height="18" id="E33"/>
<rect x="83" y="213" fill="#F9EE30" width="24" height="20" id="F01"/>
<rect x="109" y="213" fill="#F9EE30" width="25" height="20" id="F02"/>
<rect x="155" y="213" fill="#E9E5E2" width="23" height="20" id="F03"/>
<rect x="180" y="213" fill="#E9E5E2" width="25" height="20" id="F04"/>
<rect x="207" y="213" fill="#E9E5E2" width="24" height="20" id="F05"/>
<rect x="233" y="213" fill="#E9E5E2" width="23" height="20" id="F06"/>
<rect x="258" y="213" fill="#E9E5E2" width="24" height="20" id="F07"/>
<rect x="284" y="213" fill="#E9E5E2" width="24" height="20" id="F08"/>
<rect x="310" y="213" fill="#E9E5E2" width="25" height="20" id="F09"/>
<rect x="337" y="213" fill="#E9E5E2" width="23" height="20" id="F10"/>
<rect x="362" y="213" fill="#E9E5E2" width="25" height="20" id="F11"/>
<rect x="389" y="213" fill="#E9E5E2" width="23" height="20" id="F12"/>
<rect x="414" y="213" fill="#E9E5E2" width="24" height="20" id="F13"/>
<rect x="440" y="213" fill="#E9E5E2" width="25" height="20" id="F14"/>
<rect x="467" y="213" fill="#E9E5E2" width="23" height="20" id="F15"/>
<rect x="492" y="213" fill="#E9E5E2" width="24" height="20" id="F16"/>
<rect x="518" y="213" fill="#E9E5E2" width="24" height="20" id="F17"/>
<rect x="544" y="213" fill="#E9E5E2" width="23" height="20" id="F18"/>
<rect x="569" y="213" fill="#E9E5E2" width="25" height="20" id="F19"/>
<rect x="596" y="213" fill="#E9E5E2" width="24" height="20" id="F20"/>
<rect x="622" y="213" fill="#E9E5E2" width="24" height="20" id="F21"/>
<rect x="648" y="213" fill="#E9E5E2" width="24" height="20" id="F22"/>
<rect x="674" y="213" fill="#E9E5E2" width="24" height="20" id="F23"/>
<rect x="700" y="213" fill="#E9E5E2" width="24" height="20" id="F24"/>
<rect x="726" y="213" fill="#E9E5E2" width="24" height="20" id="F25"/>
<rect x="752" y="213" fill="#E9E5E2" width="24" height="20" id="F26"/>
<rect x="778" y="213" fill="#E9E5E2" width="23" height="20" id="F27"/>
<rect x="822" y="213" fill="#F9EE30" width="24" height="20" id="F28"/>
<rect x="848" y="213" fill="#F9EE30" width="24" height="20" id="F29"/>
<rect x="155" y="272" fill="#E9E5E2" width="23" height="20" id="G01"/>
<rect x="180" y="272" fill="#E9E5E2" width="25" height="20" id="G02"/>
<rect x="207" y="272" fill="#E9E5E2" width="24" height="20" id="G03"/>
<rect x="233" y="272" fill="#E9E5E2" width="23" height="20" id="G04"/>
<rect x="258" y="272" fill="#E9E5E2" width="24" height="20" id="G05"/>
<rect x="285" y="272" fill="#FFBDBD" width="49" height="20" id="G06"/>
<rect x="338" y="272" fill="#FFBDBD" width="48" height="20" id="G07"/>
<rect x="390" y="272" fill="#FFBDBD" width="47" height="20" id="G08"/>
<rect x="441" y="272" fill="#FFBDBD" width="48" height="20" id="G09"/>
<rect x="493" y="272" fill="#FFBDBD" width="48" height="20" id="G10"/>
<rect x="545" y="272" fill="#FFBDBD" width="48" height="20" id="G11"/>
<rect x="596" y="272" fill="#FFBDBD" width="48" height="20" id="G12"/>
<rect x="647" y="272" fill="#FFBDBD" width="50" height="20" id="G13"/>
<rect x="700" y="272" fill="#E9E5E2" width="24" height="20" id="G14"/>
<rect x="726" y="272" fill="#E9E5E2" width="24" height="20" id="G15"/>
<rect x="752" y="272" fill="#E9E5E2" width="24" height="20" id="G16"/>
<rect x="778" y="272" fill="#E9E5E2" width="23" height="20" id="G17"/>
<rect x="155" y="304" fill="#E9E5E2" width="23" height="20" id="H01"/>
<rect x="180" y="304" fill="#E9E5E2" width="25" height="20" id="H02"/>
<rect x="207" y="304" fill="#E9E5E2" width="24" height="20" id="H03"/>
<rect x="233" y="304" fill="#E9E5E2" width="23" height="20" id="H04"/>
<rect x="258" y="304" fill="#E9E5E2" width="24" height="20" id="H05"/>
<rect x="284" y="304" fill="#E9E5E2" width="24" height="20" id="H06"/>
<rect x="310" y="304" fill="#E9E5E2" width="25" height="20" id="H07"/>
<rect x="337" y="304" fill="#E9E5E2" width="23" height="20" id="H08"/>
<rect x="362" y="304" fill="#E9E5E2" width="25" height="20" id="H09"/>
<rect x="389" y="304" fill="#E9E5E2" width="23" height="20" id="H10"/>
<rect x="414" y="304" fill="#E9E5E2" width="24" height="20" id="H11"/>
<rect x="440" y="304" fill="#E9E5E2" width="25" height="20" id="H12"/>
<rect x="467" y="304" fill="#E9E5E2" width="23" height="20" id="H13"/>
<rect x="492" y="304" fill="#E9E5E2" width="24" height="20" id="H14"/>
<rect x="518" y="304" fill="#E9E5E2" width="24" height="20" id="H15"/>
<rect x="544" y="304" fill="#E9E5E2" width="23" height="20" id="H16"/>
<rect x="569" y="304" fill="#E9E5E2" width="25" height="20" id="H17"/>
<rect x="596" y="304" fill="#E9E5E2" width="24" height="20" id="H18"/>
<rect x="622" y="304" fill="#E9E5E2" width="24" height="20" id="H19"/>
<rect x="648" y="304" fill="#E9E5E2" width="24" height="20" id="H20"/>
<rect x="674" y="304" fill="#E9E5E2" width="24" height="20" id="H21"/>
<rect x="700" y="304" fill="#E9E5E2" width="24" height="20" id="H22"/>
<rect x="726" y="304" fill="#E9E5E2" width="24" height="20" id="H23"/>
<rect x="752" y="304" fill="#E9E5E2" width="24" height="20" id="H24"/>
<rect x="778" y="304" fill="#E9E5E2" width="23" height="20" id="H25"/>
<rect x="33" y="336" fill="#E9E5E2" width="24" height="20" id="I01"/>
<rect x="59" y="336" fill="#E9E5E2" width="25" height="20" id="I02"/>
<rect x="86" y="336" fill="#E9E5E2" width="23" height="20" id="I03"/>
<rect x="111" y="336" fill="#E9E5E2" width="24" height="20" id="I04"/>
<rect x="155" y="336" fill="#E9E5E2" width="23" height="20" id="I05"/>
<rect x="180" y="336" fill="#E9E5E2" width="25" height="20" id="I06"/>
<rect x="207" y="336" fill="#E9E5E2" width="24" height="20" id="I07"/>
<rect x="233" y="336" fill="#E9E5E2" width="23" height="20" id="I08"/>
<rect x="258" y="336" fill="#E9E5E2" width="24" height="20" id="I09"/>
<rect x="284" y="336" fill="#E9E5E2" width="24" height="20" id="I10"/>
<rect x="310" y="336" fill="#E9E5E2" width="25" height="20" id="I11"/>
<rect x="337" y="336" fill="#E9E5E2" width="23" height="20" id="I12"/>
<rect x="362" y="336" fill="#E9E5E2" width="25" height="20" id="I13"/>
<rect x="389" y="336" fill="#E9E5E2" width="23" height="20" id="I14"/>
<rect x="414" y="336" fill="#E9E5E2" width="24" height="20" id="I15"/>
<rect x="440" y="336" fill="#E9E5E2" width="25" height="20" id="I16"/>
<rect x="467" y="336" fill="#E9E5E2" width="23" height="20" id="I17"/>
<rect x="492" y="336" fill="#E9E5E2" width="24" height="20" id="I18"/>
<rect x="518" y="336" fill="#E9E5E2" width="24" height="20" id="I19"/>
<rect x="544" y="336" fill="#E9E5E2" width="23" height="20" id="I20"/>
<rect x="569" y="336" fill="#E9E5E2" width="25" height="20" id="I21"/>
<rect x="596" y="336" fill="#E9E5E2" width="24" height="20" id="I22"/>
<rect x="622" y="336" fill="#E9E5E2" width="24" height="20" id="I23"/>
<rect x="648" y="336" fill="#E9E5E2" width="24" height="20" id="I24"/>
<rect x="674" y="336" fill="#E9E5E2" width="24" height="20" id="I25"/>
<rect x="700" y="336" fill="#E9E5E2" width="24" height="20" id="I26"/>
<rect x="726" y="336" fill="#E9E5E2" width="24" height="20" id="I27"/>
<rect x="752" y="336" fill="#E9E5E2" width="24" height="20" id="I28"/>
<rect x="778" y="336" fill="#E9E5E2" width="23" height="20" id="I29"/>
<rect x="822" y="336" fill="#E9E5E2" width="24" height="20" id="I30"/>
<rect x="848" y="336" fill="#E9E5E2" width="25" height="20" id="I31"/>
<rect x="875" y="336" fill="#E9E5E2" width="23" height="20" id="I32"/>
<rect x="900" y="336" fill="#E9E5E2" width="24" height="20" id="I33"/>
<rect x="155" y="368" fill="#E9E5E2" width="23" height="20" id="J01"/>
<rect x="180" y="368" fill="#E9E5E2" width="25" height="20" id="J02"/>
<rect x="207" y="368" fill="#E9E5E2" width="24" height="20" id="J03"/>
<rect x="233" y="368" fill="#E9E5E2" width="23" height="20" id="J04"/>
<rect x="258" y="368" fill="#E9E5E2" width="24" height="20" id="J05"/>
<rect x="284" y="368" fill="#E9E5E2" width="24" height="20" id="J06"/>
<rect x="310" y="368" fill="#E9E5E2" width="25" height="20" id="J07"/>
<rect x="337" y="368" fill="#E9E5E2" width="23" height="20" id="J08"/>
<rect x="362" y="368" fill="#E9E5E2" width="25" height="20" id="J09"/>
<rect x="389" y="368" fill="#E9E5E2" width="23" height="20" id="J10"/>
<rect x="414" y="368" fill="#E9E5E2" width="24" height="20" id="J11"/>
<rect x="440" y="368" fill="#E9E5E2" width="25" height="20" id="J12"/>
<rect x="467" y="368" fill="#E9E5E2" width="23" height="20" id="J13"/>
<rect x="492" y="368" fill="#E9E5E2" width="24" height="20" id="J14"/>
<rect x="518" y="368" fill="#E9E5E2" width="24" height="20" id="J15"/>
<rect x="544" y="368" fill="#E9E5E2" width="23" height="20" id="J16"/>
<rect x="569" y="368" fill="#E9E5E2" width="25" height="20" id="J17"/>
<rect x="596" y="368" fill="#E9E5E2" width="24" height="20" id="J18"/>
<rect x="622" y="368" fill="#E9E5E2" width="24" height="20" id="J19"/>
<rect x="648" y="368" fill="#E9E5E2" width="24" height="20" id="J20"/>
<rect x="674" y="368" fill="#E9E5E2" width="24" height="20" id="J21"/>
<rect x="700" y="368" fill="#E9E5E2" width="24" height="20" id="J22"/>
<rect x="726" y="368" fill="#E9E5E2" width="24" height="20" id="J23"/>
<rect x="752" y="368" fill="#E9E5E2" width="24" height="20" id="J24"/>
<rect x="778" y="368" fill="#E9E5E2" width="23" height="20" id="J25"/>

</g>
</svg>
